<svg width="880" height="421" viewBox="0 0 880 421" fill="none" xmlns="http://www.w3.org/2000/svg">
<path d="M196 48H294" stroke="white" stroke-linecap="round" stroke-dasharray="8 8"/>
<path d="M491 48L619 48" stroke="white" stroke-linecap="round" stroke-dasharray="6 6"/>
<path d="M135.5 215.5H56.5C48.2157 215.5 41.5 222.216 41.5 230.5V369C41.5 377.284 48.2157 384 56.5 384H291.5" stroke="white" stroke-linecap="round" stroke-dasharray="3 3"/>
<path d="M459 215.5H327" stroke="white" stroke-linecap="round" stroke-dasharray="4 4"/>
<path d="M819 47.5H862.5C870.784 47.5 877.5 54.2157 877.5 62.5V200C877.5 208.284 870.784 215 862.5 215H654" stroke="white" stroke-linecap="round" stroke-dasharray="5 5"/>
<rect x="2" y="11" width="200" height="74" rx="15" fill="white"/>
<rect x="14" y="22" width="52" height="52" rx="10" fill="#E7EDFB"/>
<path d="M28.7567 38.1622V57.1487C28.7567 59.2757 30.481 61 32.6081 61H45.9864C48.1135 61 49.8378 59.2757 49.8378 57.1487V52.5676M28.7567 38.1622L32.2702 34.6487M28.7567 38.1622H32.2702V34.6487M32.2702 34.6487H45.9864C48.1135 34.6487 49.8378 36.373 49.8378 38.5V42.027" stroke="#1351D8" stroke-linecap="round"/>
<path d="M41.9002 52.2407L50.0057 44.0709M41.9002 52.2407L44.795 55.1356M41.9002 52.2407L40.2811 55.8954C40.0546 56.4065 40.571 56.9308 41.0855 56.7121L44.795 55.1356M50.0057 44.0709L52.7719 46.9014M50.0057 44.0709L52.0642 42.2054C53 41.3244 55.8108 43.5087 54.7017 44.7785L52.7719 46.9014M52.7719 46.9014L44.795 55.1356" stroke="#1351D8" stroke-linejoin="round"/>
<path d="M31.9189 35.7027L29.8108 37.8108H31.9189V35.7027Z" fill="#1351D8" stroke="#1351D8"/>
<circle cx="32.6215" cy="43.4325" r="0.702703" fill="#1351D8"/>
<circle cx="32.6215" cy="46.946" r="0.702703" fill="#1351D8"/>
<path d="M35.0812 43.4325H43.1623" stroke="#1351D8" stroke-linecap="round"/>
<path d="M35.0812 46.946H40.3514" stroke="#1351D8" stroke-linecap="round"/>
<path d="M80.088 52V40.8H82.136V52H80.088ZM84.2588 52V44.064H86.0668L86.2268 45.408C86.4721 44.9387 86.8241 44.5653 87.2828 44.288C87.7521 44.0107 88.3014 43.872 88.9308 43.872C89.9121 43.872 90.6748 44.1813 91.2188 44.8C91.7627 45.4187 92.0347 46.3253 92.0347 47.52V52H89.9868V47.712C89.9868 47.0293 89.8481 46.5067 89.5708 46.144C89.2934 45.7813 88.8614 45.6 88.2748 45.6C87.6988 45.6 87.2241 45.8027 86.8508 46.208C86.4881 46.6133 86.3068 47.1787 86.3068 47.904V52H84.2588ZM100.297 55.52V50.864C100.041 51.216 99.6998 51.5253 99.2731 51.792C98.8571 52.0587 98.3131 52.192 97.6411 52.192C96.8945 52.192 96.2278 52.0107 95.6411 51.648C95.0545 51.2853 94.5905 50.7893 94.2491 50.16C93.9078 49.5307 93.7371 48.816 93.7371 48.016C93.7371 47.216 93.9078 46.5067 94.2491 45.888C94.5905 45.2587 95.0545 44.768 95.6411 44.416C96.2278 44.0533 96.8945 43.872 97.6411 43.872C98.2385 43.872 98.7611 43.984 99.2091 44.208C99.6571 44.432 100.02 44.7467 100.297 45.152L100.521 44.064H102.345V55.52H100.297ZM98.0731 50.4C98.7345 50.4 99.2731 50.1813 99.6891 49.744C100.116 49.296 100.329 48.7253 100.329 48.032C100.329 47.3387 100.116 46.7733 99.6891 46.336C99.2731 45.888 98.7345 45.664 98.0731 45.664C97.4225 45.664 96.8838 45.8827 96.4571 46.32C96.0305 46.7573 95.8171 47.3227 95.8171 48.016C95.8171 48.7093 96.0305 49.28 96.4571 49.728C96.8838 50.176 97.4225 50.4 98.0731 50.4ZM107.407 52.192C106.415 52.192 105.647 51.8827 105.103 51.264C104.569 50.6453 104.303 49.7387 104.303 48.544V44.064H106.335V48.352C106.335 49.0347 106.473 49.5573 106.751 49.92C107.028 50.2827 107.465 50.464 108.063 50.464C108.628 50.464 109.092 50.2613 109.455 49.856C109.828 49.4507 110.015 48.8853 110.015 48.16V44.064H112.063V52H110.255L110.095 50.656C109.849 51.1253 109.492 51.4987 109.023 51.776C108.564 52.0533 108.025 52.192 107.407 52.192ZM115.269 42.832C114.896 42.832 114.586 42.72 114.341 42.496C114.106 42.272 113.989 41.9893 113.989 41.648C113.989 41.3067 114.106 41.0293 114.341 40.816C114.586 40.592 114.896 40.48 115.269 40.48C115.642 40.48 115.946 40.592 116.181 40.816C116.426 41.0293 116.549 41.3067 116.549 41.648C116.549 41.9893 116.426 42.272 116.181 42.496C115.946 42.72 115.642 42.832 115.269 42.832ZM114.245 52V44.064H116.293V52H114.245ZM118.431 52V44.064H120.255L120.447 45.552C120.735 45.04 121.124 44.6347 121.615 44.336C122.116 44.0267 122.703 43.872 123.375 43.872V46.032H122.799C122.351 46.032 121.951 46.1013 121.599 46.24C121.247 46.3787 120.969 46.6187 120.767 46.96C120.575 47.3013 120.479 47.776 120.479 48.384V52H118.431ZM125.766 55.52L127.606 51.472H127.126L124.038 44.064H126.262L128.486 49.648L130.806 44.064H132.982L127.942 55.52H125.766Z" fill="#1351D8"/>
<path d="M487 11H317C308.716 11 302 17.7157 302 26V36C295.096 36 289.5 41.5964 289.5 48.5C289.5 55.4036 295.096 61 302 61V70C302 78.2843 308.716 85 317 85H487C495.284 85 502 78.2843 502 70V26C502 17.7157 495.284 11 487 11Z" fill="white"/>
<rect x="314" y="22" width="52" height="52" rx="10" fill="#E7EDFB"/>
<path d="M337.461 54.2835L341.003 54.1644M345.66 51.6026C345.446 51.4857 345.215 51.3949 345.004 51.3319L338.904 50.676C335.69 50.0857 333.919 50.5011 333.198 50.8728V57.6286L339.691 59.7931C341.921 60.7769 342.512 60.449 343.299 59.9243L352.94 52.9061C354.515 51.5287 352.416 49.561 350.973 50.676L345.004 54.677C343.561 55.6609 342.708 55.5297 342.315 55.2018L341.003 54.1644M345.66 51.6026C346.447 52.0329 346.447 53.89 345.266 54.0211L341.003 54.1644M345.66 51.6026C346.797 50.6816 349.385 49.2462 350.645 50.8728" stroke="#1351D8" stroke-linecap="round"/>
<path d="M329 57.9566V50.3481C329 49.9859 329.294 49.6922 329.656 49.6922H332.083C332.445 49.6922 332.739 49.9859 332.739 50.3481V57.9566C332.739 58.3188 332.445 58.6125 332.083 58.6125H329.656C329.294 58.6125 329 58.3188 329 57.9566Z" stroke="#1351D8" stroke-linecap="round"/>
<path d="M347.365 38.4763V46.0847C347.365 46.447 347.072 46.7406 346.709 46.7406H338.248C337.886 46.7406 337.592 46.447 337.592 46.0847V35.6559C337.592 35.2937 337.886 35 338.248 35H344.151M347.365 38.4763L344.151 35M347.365 38.4763H344.807C344.445 38.4763 344.151 38.1826 344.151 37.8204V35M339.363 44.6418H345.791M345.791 42.0181H339.363M339.363 39.6569H342.512M342.512 37.2301H339.363" stroke="#1351D8" stroke-linecap="round" stroke-linejoin="round"/>
<path d="M380.088 52V40.8H384.232C385.128 40.8 385.869 40.9493 386.456 41.248C387.043 41.5467 387.48 41.9573 387.768 42.48C388.056 43.0027 388.2 43.5893 388.2 44.24C388.2 44.8587 388.061 45.4293 387.784 45.952C387.507 46.464 387.075 46.88 386.488 47.2C385.901 47.5093 385.149 47.664 384.232 47.664H382.136V52H380.088ZM382.136 46H384.104C384.819 46 385.331 45.8453 385.64 45.536C385.96 45.216 386.12 44.784 386.12 44.24C386.12 43.6853 385.96 43.2533 385.64 42.944C385.331 42.624 384.819 42.464 384.104 42.464H382.136V46ZM389.759 52V44.064H391.583L391.775 45.552C392.063 45.04 392.452 44.6347 392.943 44.336C393.444 44.0267 394.031 43.872 394.703 43.872V46.032H394.127C393.679 46.032 393.279 46.1013 392.927 46.24C392.575 46.3787 392.297 46.6187 392.095 46.96C391.903 47.3013 391.807 47.776 391.807 48.384V52H389.759ZM399.77 52.192C399.002 52.192 398.309 52.016 397.69 51.664C397.082 51.312 396.597 50.8267 396.234 50.208C395.882 49.5787 395.706 48.8533 395.706 48.032C395.706 47.2107 395.887 46.4907 396.25 45.872C396.613 45.2427 397.098 44.752 397.706 44.4C398.325 44.048 399.018 43.872 399.786 43.872C400.543 43.872 401.226 44.048 401.834 44.4C402.453 44.752 402.938 45.2427 403.29 45.872C403.653 46.4907 403.834 47.2107 403.834 48.032C403.834 48.8533 403.653 49.5787 403.29 50.208C402.938 50.8267 402.453 51.312 401.834 51.664C401.215 52.016 400.527 52.192 399.77 52.192ZM399.77 50.416C400.303 50.416 400.767 50.2187 401.162 49.824C401.557 49.4187 401.754 48.8213 401.754 48.032C401.754 47.2427 401.557 46.6507 401.162 46.256C400.767 45.8507 400.309 45.648 399.786 45.648C399.242 45.648 398.773 45.8507 398.378 46.256C397.994 46.6507 397.802 47.2427 397.802 48.032C397.802 48.8213 397.994 49.4187 398.378 49.824C398.773 50.2187 399.237 50.416 399.77 50.416ZM405.665 55.52V44.064H407.489L407.713 45.2C407.969 44.848 408.305 44.5387 408.721 44.272C409.148 44.0053 409.697 43.872 410.369 43.872C411.116 43.872 411.782 44.0533 412.369 44.416C412.956 44.7787 413.42 45.2747 413.761 45.904C414.102 46.5333 414.273 47.248 414.273 48.048C414.273 48.848 414.102 49.5627 413.761 50.192C413.42 50.8107 412.956 51.3013 412.369 51.664C411.782 52.016 411.116 52.192 410.369 52.192C409.772 52.192 409.249 52.08 408.801 51.856C408.353 51.632 407.99 51.3173 407.713 50.912V55.52H405.665ZM409.937 50.4C410.588 50.4 411.126 50.1813 411.553 49.744C411.98 49.3067 412.193 48.7413 412.193 48.048C412.193 47.3547 411.98 46.784 411.553 46.336C411.126 45.888 410.588 45.664 409.937 45.664C409.276 45.664 408.732 45.888 408.305 46.336C407.889 46.7733 407.681 47.3387 407.681 48.032C407.681 48.7253 407.889 49.296 408.305 49.744C408.732 50.1813 409.276 50.4 409.937 50.4ZM419.911 52.192C419.143 52.192 418.449 52.016 417.831 51.664C417.223 51.312 416.737 50.8267 416.375 50.208C416.023 49.5787 415.847 48.8533 415.847 48.032C415.847 47.2107 416.028 46.4907 416.391 45.872C416.753 45.2427 417.239 44.752 417.847 44.4C418.465 44.048 419.159 43.872 419.927 43.872C420.684 43.872 421.367 44.048 421.975 44.4C422.593 44.752 423.079 45.2427 423.431 45.872C423.793 46.4907 423.975 47.2107 423.975 48.032C423.975 48.8533 423.793 49.5787 423.431 50.208C423.079 50.8267 422.593 51.312 421.975 51.664C421.356 52.016 420.668 52.192 419.911 52.192ZM419.911 50.416C420.444 50.416 420.908 50.2187 421.303 49.824C421.697 49.4187 421.895 48.8213 421.895 48.032C421.895 47.2427 421.697 46.6507 421.303 46.256C420.908 45.8507 420.449 45.648 419.927 45.648C419.383 45.648 418.913 45.8507 418.519 46.256C418.135 46.6507 417.943 47.2427 417.943 48.032C417.943 48.8213 418.135 49.4187 418.519 49.824C418.913 50.2187 419.377 50.416 419.911 50.416ZM429.086 52.192C428.382 52.192 427.763 52.08 427.23 51.856C426.696 51.6213 426.27 51.3013 425.95 50.896C425.63 50.4907 425.438 50.0213 425.374 49.488H427.438C427.502 49.7973 427.672 50.064 427.95 50.288C428.238 50.5013 428.606 50.608 429.054 50.608C429.502 50.608 429.827 50.5173 430.03 50.336C430.243 50.1547 430.35 49.9467 430.35 49.712C430.35 49.3707 430.2 49.1413 429.902 49.024C429.603 48.896 429.187 48.7733 428.654 48.656C428.312 48.5813 427.966 48.4907 427.614 48.384C427.262 48.2773 426.936 48.144 426.638 47.984C426.35 47.8133 426.115 47.6 425.934 47.344C425.752 47.0773 425.662 46.752 425.662 46.368C425.662 45.664 425.939 45.072 426.494 44.592C427.059 44.112 427.848 43.872 428.862 43.872C429.8 43.872 430.547 44.0907 431.102 44.528C431.667 44.9653 432.003 45.568 432.11 46.336H430.174C430.056 45.7493 429.614 45.456 428.846 45.456C428.462 45.456 428.163 45.5307 427.95 45.68C427.747 45.8293 427.646 46.016 427.646 46.24C427.646 46.4747 427.8 46.6613 428.11 46.8C428.419 46.9387 428.83 47.0667 429.342 47.184C429.896 47.312 430.403 47.456 430.862 47.616C431.331 47.7653 431.704 47.9947 431.982 48.304C432.259 48.6027 432.398 49.0347 432.398 49.6C432.408 50.0907 432.28 50.5333 432.014 50.928C431.747 51.3227 431.363 51.632 430.862 51.856C430.36 52.08 429.768 52.192 429.086 52.192ZM436.948 52.192C436.265 52.192 435.705 52.0853 435.268 51.872C434.831 51.648 434.505 51.3547 434.292 50.992C434.079 50.6293 433.972 50.2293 433.972 49.792C433.972 49.056 434.26 48.4587 434.836 48C435.412 47.5413 436.276 47.312 437.428 47.312H439.444V47.12C439.444 46.576 439.289 46.176 438.98 45.92C438.671 45.664 438.287 45.536 437.828 45.536C437.412 45.536 437.049 45.6373 436.74 45.84C436.431 46.032 436.239 46.32 436.164 46.704H434.164C434.217 46.128 434.409 45.6267 434.74 45.2C435.081 44.7733 435.519 44.448 436.052 44.224C436.585 43.9893 437.183 43.872 437.844 43.872C438.975 43.872 439.865 44.1547 440.516 44.72C441.167 45.2853 441.492 46.0853 441.492 47.12V52H439.748L439.556 50.72C439.321 51.1467 438.991 51.4987 438.564 51.776C438.148 52.0533 437.609 52.192 436.948 52.192ZM437.412 50.592C437.999 50.592 438.452 50.4 438.772 50.016C439.103 49.632 439.311 49.1573 439.396 48.592H437.652C437.108 48.592 436.719 48.6933 436.484 48.896C436.249 49.088 436.132 49.328 436.132 49.616C436.132 49.9253 436.249 50.1653 436.484 50.336C436.719 50.5067 437.028 50.592 437.412 50.592ZM443.446 52V40.48H445.494V52H443.446Z" fill="#1351D8"/>
<circle cx="301" cy="48" r="7" fill="#1351D8"/>
<path d="M815 10H645C636.716 10 630 16.7157 630 25V35C623.096 35 617.5 40.5964 617.5 47.5C617.5 54.4036 623.096 60 630 60V69C630 77.2843 636.716 84 645 84H815C823.284 84 830 77.2843 830 69V25C830 16.7157 823.284 10 815 10Z" fill="white"/>
<circle cx="629" cy="47" r="7" fill="#1351D8"/>
<rect x="642" y="21" width="52" height="52" rx="10" fill="#E7EDFB"/>
<path d="M657.72 50.4377L666.269 57.13C667.159 57.9138 669.796 57.4616 668.651 55.0198M668.651 55.0198L665.425 52.5026M668.651 55.0198C670.987 57.13 673.384 56.4366 672.193 54.025M672.193 54.025L667.716 50.498M672.193 54.025L672.796 54.432C674.122 55.276 676.051 53.6934 674.8 52.1861M674.8 52.1861L670.098 48.5536M674.8 52.1861L675.271 52.4855C675.289 52.4968 675.308 52.5043 675.329 52.507C676.155 52.6151 677.625 52.285 677.137 50.1061M677.137 50.1061L667.912 43.0082M677.137 50.1061C677.664 50.5432 678.237 50.8899 679.238 50.4829M666.676 42.0572L667.912 43.0082M667.912 43.0082C667.246 44.5338 665.183 47.0021 662.22 44.8125C662.165 44.7714 662.144 44.6957 662.172 44.6325C662.708 43.4299 663.488 41.7438 664.626 40.5302M676.593 40.8665L668.907 39.1633C667.097 38.6584 665.702 39.3832 664.626 40.5302M660.309 40.972L664.626 40.5302M654.143 50.283L657.351 51.2095C657.431 51.2327 657.515 51.1857 657.537 51.1052L660.472 40.3779C660.494 40.2981 660.447 40.2158 660.367 40.194L657.233 39.338C657.154 39.3164 657.072 39.3627 657.05 39.4418L654.04 50.0985C654.018 50.1778 654.064 50.2602 654.143 50.283ZM679.876 39.3367L682.959 50.1279C682.982 50.2074 682.935 50.2903 682.856 50.313L679.603 51.2403C679.523 51.2631 679.44 51.2163 679.418 51.1361L676.438 40.3017C676.416 40.2222 676.462 40.1401 676.542 40.1178L679.691 39.2337C679.771 39.2114 679.853 39.2574 679.876 39.3367Z" stroke="#1351D8" stroke-width="1.11538" stroke-linecap="round"/>
<path d="M713.336 51.192C712.216 51.192 711.235 50.9467 710.392 50.456C709.56 49.9653 708.904 49.288 708.424 48.424C707.955 47.5493 707.72 46.5413 707.72 45.4C707.72 44.2587 707.955 43.256 708.424 42.392C708.904 41.5173 709.56 40.8347 710.392 40.344C711.235 39.8533 712.216 39.608 713.336 39.608C714.445 39.608 715.421 39.8533 716.264 40.344C717.107 40.8347 717.763 41.5173 718.232 42.392C718.701 43.256 718.936 44.2587 718.936 45.4C718.936 46.5413 718.701 47.5493 718.232 48.424C717.763 49.288 717.107 49.9653 716.264 50.456C715.421 50.9467 714.445 51.192 713.336 51.192ZM713.336 49.352C714.403 49.352 715.251 49 715.88 48.296C716.52 47.592 716.84 46.6267 716.84 45.4C716.84 44.1733 716.52 43.208 715.88 42.504C715.251 41.8 714.403 41.448 713.336 41.448C712.269 41.448 711.416 41.8 710.776 42.504C710.136 43.208 709.816 44.1733 709.816 45.4C709.816 46.6267 710.136 47.592 710.776 48.296C711.416 49 712.269 49.352 713.336 49.352ZM720.696 51V43.064H722.504L722.664 44.408C722.91 43.9387 723.262 43.5653 723.72 43.288C724.19 43.0107 724.739 42.872 725.368 42.872C726.35 42.872 727.112 43.1813 727.656 43.8C728.2 44.4187 728.472 45.3253 728.472 46.52V51H726.424V46.712C726.424 46.0293 726.286 45.5067 726.008 45.144C725.731 44.7813 725.299 44.6 724.712 44.6C724.136 44.6 723.662 44.8027 723.288 45.208C722.926 45.6133 722.744 46.1787 722.744 46.904V51H720.696ZM735.135 51.192C734.537 51.192 734.015 51.08 733.567 50.856C733.119 50.632 732.756 50.3173 732.479 49.912L732.255 51H730.431V39.48H732.479V44.2C732.735 43.848 733.071 43.5387 733.487 43.272C733.913 43.0053 734.463 42.872 735.135 42.872C735.881 42.872 736.548 43.0533 737.135 43.416C737.721 43.7787 738.185 44.2747 738.527 44.904C738.868 45.5333 739.039 46.248 739.039 47.048C739.039 47.848 738.868 48.5627 738.527 49.192C738.185 49.8107 737.721 50.3013 737.135 50.664C736.548 51.016 735.881 51.192 735.135 51.192ZM734.703 49.4C735.353 49.4 735.892 49.1813 736.319 48.744C736.745 48.3067 736.959 47.7413 736.959 47.048C736.959 46.3547 736.745 45.784 736.319 45.336C735.892 44.888 735.353 44.664 734.703 44.664C734.041 44.664 733.497 44.888 733.071 45.336C732.655 45.7733 732.447 46.3387 732.447 47.032C732.447 47.7253 732.655 48.296 733.071 48.744C733.497 49.1813 734.041 49.4 734.703 49.4ZM744.676 51.192C743.908 51.192 743.215 51.016 742.596 50.664C741.988 50.312 741.503 49.8267 741.14 49.208C740.788 48.5787 740.612 47.8533 740.612 47.032C740.612 46.2107 740.793 45.4907 741.156 44.872C741.519 44.2427 742.004 43.752 742.612 43.4C743.231 43.048 743.924 42.872 744.692 42.872C745.449 42.872 746.132 43.048 746.74 43.4C747.359 43.752 747.844 44.2427 748.196 44.872C748.559 45.4907 748.74 46.2107 748.74 47.032C748.74 47.8533 748.559 48.5787 748.196 49.208C747.844 49.8267 747.359 50.312 746.74 50.664C746.121 51.016 745.433 51.192 744.676 51.192ZM744.676 49.416C745.209 49.416 745.673 49.2187 746.068 48.824C746.463 48.4187 746.66 47.8213 746.66 47.032C746.66 46.2427 746.463 45.6507 746.068 45.256C745.673 44.8507 745.215 44.648 744.692 44.648C744.148 44.648 743.679 44.8507 743.284 45.256C742.9 45.6507 742.708 46.2427 742.708 47.032C742.708 47.8213 742.9 48.4187 743.284 48.824C743.679 49.2187 744.143 49.416 744.676 49.416ZM753.307 51.192C752.625 51.192 752.065 51.0853 751.627 50.872C751.19 50.648 750.865 50.3547 750.651 49.992C750.438 49.6293 750.331 49.2293 750.331 48.792C750.331 48.056 750.619 47.4587 751.195 47C751.771 46.5413 752.635 46.312 753.787 46.312H755.803V46.12C755.803 45.576 755.649 45.176 755.339 44.92C755.03 44.664 754.646 44.536 754.187 44.536C753.771 44.536 753.409 44.6373 753.099 44.84C752.79 45.032 752.598 45.32 752.523 45.704H750.523C750.577 45.128 750.769 44.6267 751.099 44.2C751.441 43.7733 751.878 43.448 752.411 43.224C752.945 42.9893 753.542 42.872 754.203 42.872C755.334 42.872 756.225 43.1547 756.875 43.72C757.526 44.2853 757.851 45.0853 757.851 46.12V51H756.107L755.915 49.72C755.681 50.1467 755.35 50.4987 754.923 50.776C754.507 51.0533 753.969 51.192 753.307 51.192ZM753.771 49.592C754.358 49.592 754.811 49.4 755.131 49.016C755.462 48.632 755.67 48.1573 755.755 47.592H754.011C753.467 47.592 753.078 47.6933 752.843 47.896C752.609 48.088 752.491 48.328 752.491 48.616C752.491 48.9253 752.609 49.1653 752.843 49.336C753.078 49.5067 753.387 49.592 753.771 49.592ZM759.806 51V43.064H761.63L761.822 44.552C762.11 44.04 762.499 43.6347 762.99 43.336C763.491 43.0267 764.078 42.872 764.75 42.872V45.032H764.174C763.726 45.032 763.326 45.1013 762.974 45.24C762.622 45.3787 762.344 45.6187 762.142 45.96C761.95 46.3013 761.854 46.776 761.854 47.384V51H759.806ZM769.657 51.192C768.91 51.192 768.243 51.0107 767.657 50.648C767.07 50.2853 766.606 49.7893 766.265 49.16C765.923 48.5307 765.753 47.816 765.753 47.016C765.753 46.216 765.923 45.5067 766.265 44.888C766.606 44.2587 767.07 43.768 767.657 43.416C768.243 43.0533 768.91 42.872 769.657 42.872C770.254 42.872 770.777 42.984 771.225 43.208C771.673 43.432 772.035 43.7467 772.313 44.152V39.48H774.361V51H772.537L772.313 49.864C772.057 50.216 771.715 50.5253 771.289 50.792C770.873 51.0587 770.329 51.192 769.657 51.192ZM770.089 49.4C770.75 49.4 771.289 49.1813 771.705 48.744C772.131 48.296 772.345 47.7253 772.345 47.032C772.345 46.3387 772.131 45.7733 771.705 45.336C771.289 44.888 770.75 44.664 770.089 44.664C769.438 44.664 768.899 44.8827 768.473 45.32C768.046 45.7573 767.833 46.3227 767.833 47.016C767.833 47.7093 768.046 48.28 768.473 48.728C768.899 49.176 769.438 49.4 770.089 49.4ZM777.55 41.832C777.177 41.832 776.868 41.72 776.622 41.496C776.388 41.272 776.27 40.9893 776.27 40.648C776.27 40.3067 776.388 40.0293 776.622 39.816C776.868 39.592 777.177 39.48 777.55 39.48C777.924 39.48 778.228 39.592 778.462 39.816C778.708 40.0293 778.83 40.3067 778.83 40.648C778.83 40.9893 778.708 41.272 778.462 41.496C778.228 41.72 777.924 41.832 777.55 41.832ZM776.526 51V43.064H778.574V51H776.526ZM780.712 51V43.064H782.52L782.68 44.408C782.925 43.9387 783.277 43.5653 783.736 43.288C784.205 43.0107 784.755 42.872 785.384 42.872C786.365 42.872 787.128 43.1813 787.672 43.8C788.216 44.4187 788.488 45.3253 788.488 46.52V51H786.44V46.712C786.44 46.0293 786.301 45.5067 786.024 45.144C785.747 44.7813 785.315 44.6 784.728 44.6C784.152 44.6 783.677 44.8027 783.304 45.208C782.941 45.6133 782.76 46.1787 782.76 46.904V51H780.712ZM793.806 48.632C793.422 48.632 793.065 48.5893 792.734 48.504L792.142 49.096C792.324 49.192 792.569 49.272 792.878 49.336C793.188 49.4 793.689 49.464 794.382 49.528C795.438 49.624 796.206 49.8747 796.686 50.28C797.166 50.6853 797.406 51.2453 797.406 51.96C797.406 52.4293 797.278 52.872 797.022 53.288C796.766 53.7147 796.372 54.056 795.838 54.312C795.305 54.5787 794.622 54.712 793.79 54.712C792.66 54.712 791.748 54.4987 791.054 54.072C790.361 53.656 790.014 53.0267 790.014 52.184C790.014 51.4693 790.361 50.8507 791.054 50.328C790.841 50.232 790.654 50.1307 790.494 50.024C790.345 49.9173 790.212 49.8053 790.094 49.688V49.32L791.486 47.848C790.868 47.304 790.558 46.6053 790.558 45.752C790.558 45.2187 790.686 44.7333 790.942 44.296C791.209 43.8587 791.582 43.512 792.062 43.256C792.542 43 793.124 42.872 793.806 42.872C794.254 42.872 794.67 42.936 795.054 43.064H798.062V44.312L796.702 44.408C796.916 44.8133 797.022 45.2613 797.022 45.752C797.022 46.2853 796.894 46.7707 796.638 47.208C796.382 47.6453 796.009 47.992 795.518 48.248C795.038 48.504 794.468 48.632 793.806 48.632ZM793.806 47.064C794.222 47.064 794.564 46.952 794.83 46.728C795.108 46.504 795.246 46.184 795.246 45.768C795.246 45.352 795.108 45.032 794.83 44.808C794.564 44.584 794.222 44.472 793.806 44.472C793.369 44.472 793.017 44.584 792.75 44.808C792.484 45.032 792.35 45.352 792.35 45.768C792.35 46.184 792.484 46.504 792.75 46.728C793.017 46.952 793.369 47.064 793.806 47.064ZM791.886 51.976C791.886 52.3707 792.068 52.664 792.43 52.856C792.804 53.0587 793.257 53.16 793.79 53.16C794.302 53.16 794.718 53.0533 795.038 52.84C795.358 52.6373 795.518 52.36 795.518 52.008C795.518 51.72 795.412 51.48 795.198 51.288C794.996 51.096 794.585 50.9787 793.966 50.936C793.529 50.904 793.124 50.856 792.75 50.792C792.441 50.9627 792.217 51.1493 792.078 51.352C791.95 51.5547 791.886 51.7627 791.886 51.976Z" fill="#1351D8"/>
<path d="M470 178H640C648.284 178 655 184.716 655 193V203C661.904 203 667.5 208.596 667.5 215.5C667.5 222.404 661.904 228 655 228V237C655 245.284 648.284 252 640 252H470C461.716 252 455 245.284 455 237V193C455 184.716 461.716 178 470 178Z" fill="white"/>
<circle cx="7" cy="7" r="7" transform="matrix(-1 0 0 1 663 208)" fill="#1351D8"/>
<rect x="467" y="189" width="52" height="52" rx="10" fill="#E7EDFB"/>
<circle cx="496.893" cy="212.142" r="9.5" transform="rotate(45 496.893 212.142)" stroke="#1351D8"/>
<path d="M490.175 218.86L486.993 222.042M486.993 222.042L488.312 223.361C488.365 223.413 488.365 223.498 488.312 223.551L483.811 228.052C482.043 229.82 479.215 226.991 480.983 225.224L485.484 220.722C485.536 220.67 485.621 220.67 485.674 220.722L486.993 222.042Z" stroke="#1351D8" stroke-linecap="round"/>
<path d="M492 217H493M502 217H501M501 217V211M501 217H497M497 217V213M497 217H493M493 217V214" stroke="#1351D8" stroke-linecap="round"/>
<path d="M492 212L493.943 209.085C493.977 209.035 494.04 209.013 494.097 209.032L496.921 209.974C496.97 209.99 497.023 209.977 497.059 209.941L501 206M501 206H498M501 206V209" stroke="#1351D8" stroke-linecap="round"/>
<path d="M532.368 219L536.464 207.8H538.768L542.864 219H540.688L539.792 216.408H535.424L534.512 219H532.368ZM535.984 214.808H539.232L537.6 210.152L535.984 214.808ZM544.259 219V211.064H546.067L546.227 212.408C546.472 211.939 546.824 211.565 547.283 211.288C547.752 211.011 548.301 210.872 548.931 210.872C549.912 210.872 550.675 211.181 551.219 211.8C551.763 212.419 552.035 213.325 552.035 214.52V219H549.987V214.712C549.987 214.029 549.848 213.507 549.571 213.144C549.293 212.781 548.861 212.6 548.275 212.6C547.699 212.6 547.224 212.803 546.851 213.208C546.488 213.613 546.307 214.179 546.307 214.904V219H544.259ZM556.729 219.192C556.046 219.192 555.486 219.085 555.049 218.872C554.612 218.648 554.286 218.355 554.073 217.992C553.86 217.629 553.753 217.229 553.753 216.792C553.753 216.056 554.041 215.459 554.617 215C555.193 214.541 556.057 214.312 557.209 214.312H559.225V214.12C559.225 213.576 559.07 213.176 558.761 212.92C558.452 212.664 558.068 212.536 557.609 212.536C557.193 212.536 556.83 212.637 556.521 212.84C556.212 213.032 556.02 213.32 555.945 213.704H553.945C553.998 213.128 554.19 212.627 554.521 212.2C554.862 211.773 555.3 211.448 555.833 211.224C556.366 210.989 556.964 210.872 557.625 210.872C558.756 210.872 559.646 211.155 560.297 211.72C560.948 212.285 561.273 213.085 561.273 214.12V219H559.529L559.337 217.72C559.102 218.147 558.772 218.499 558.345 218.776C557.929 219.053 557.39 219.192 556.729 219.192ZM557.193 217.592C557.78 217.592 558.233 217.4 558.553 217.016C558.884 216.632 559.092 216.157 559.177 215.592H557.433C556.889 215.592 556.5 215.693 556.265 215.896C556.03 216.088 555.913 216.328 555.913 216.616C555.913 216.925 556.03 217.165 556.265 217.336C556.5 217.507 556.809 217.592 557.193 217.592ZM563.228 219V207.48H565.276V219H563.228ZM568.36 222.52L570.2 218.472H569.72L566.632 211.064H568.856L571.08 216.648L573.4 211.064H575.576L570.536 222.52H568.36ZM579.804 219.192C579.1 219.192 578.482 219.08 577.948 218.856C577.415 218.621 576.988 218.301 576.668 217.896C576.348 217.491 576.156 217.021 576.092 216.488H578.156C578.22 216.797 578.391 217.064 578.668 217.288C578.956 217.501 579.324 217.608 579.772 217.608C580.22 217.608 580.546 217.517 580.748 217.336C580.962 217.155 581.068 216.947 581.068 216.712C581.068 216.371 580.919 216.141 580.62 216.024C580.322 215.896 579.906 215.773 579.372 215.656C579.031 215.581 578.684 215.491 578.332 215.384C577.98 215.277 577.655 215.144 577.356 214.984C577.068 214.813 576.834 214.6 576.652 214.344C576.471 214.077 576.38 213.752 576.38 213.368C576.38 212.664 576.658 212.072 577.212 211.592C577.778 211.112 578.567 210.872 579.58 210.872C580.519 210.872 581.266 211.091 581.82 211.528C582.386 211.965 582.722 212.568 582.828 213.336H580.892C580.775 212.749 580.332 212.456 579.564 212.456C579.18 212.456 578.882 212.531 578.668 212.68C578.466 212.829 578.364 213.016 578.364 213.24C578.364 213.475 578.519 213.661 578.828 213.8C579.138 213.939 579.548 214.067 580.06 214.184C580.615 214.312 581.122 214.456 581.58 214.616C582.05 214.765 582.423 214.995 582.7 215.304C582.978 215.603 583.116 216.035 583.116 216.6C583.127 217.091 582.999 217.533 582.732 217.928C582.466 218.323 582.082 218.632 581.58 218.856C581.079 219.08 580.487 219.192 579.804 219.192ZM586.035 209.832C585.661 209.832 585.352 209.72 585.107 209.496C584.872 209.272 584.755 208.989 584.755 208.648C584.755 208.307 584.872 208.029 585.107 207.816C585.352 207.592 585.661 207.48 586.035 207.48C586.408 207.48 586.712 207.592 586.947 207.816C587.192 208.029 587.315 208.307 587.315 208.648C587.315 208.989 587.192 209.272 586.947 209.496C586.712 209.72 586.408 209.832 586.035 209.832ZM585.011 219V211.064H587.059V219H585.011ZM592.476 219.192C591.772 219.192 591.154 219.08 590.62 218.856C590.087 218.621 589.66 218.301 589.34 217.896C589.02 217.491 588.828 217.021 588.764 216.488H590.828C590.892 216.797 591.063 217.064 591.34 217.288C591.628 217.501 591.996 217.608 592.444 217.608C592.892 217.608 593.218 217.517 593.42 217.336C593.634 217.155 593.74 216.947 593.74 216.712C593.74 216.371 593.591 216.141 593.292 216.024C592.994 215.896 592.578 215.773 592.044 215.656C591.703 215.581 591.356 215.491 591.004 215.384C590.652 215.277 590.327 215.144 590.028 214.984C589.74 214.813 589.506 214.6 589.324 214.344C589.143 214.077 589.052 213.752 589.052 213.368C589.052 212.664 589.33 212.072 589.884 211.592C590.45 211.112 591.239 210.872 592.252 210.872C593.191 210.872 593.938 211.091 594.492 211.528C595.058 211.965 595.394 212.568 595.5 213.336H593.564C593.447 212.749 593.004 212.456 592.236 212.456C591.852 212.456 591.554 212.531 591.34 212.68C591.138 212.829 591.036 213.016 591.036 213.24C591.036 213.475 591.191 213.661 591.5 213.8C591.81 213.939 592.22 214.067 592.732 214.184C593.287 214.312 593.794 214.456 594.252 214.616C594.722 214.765 595.095 214.995 595.372 215.304C595.65 215.603 595.788 216.035 595.788 216.6C595.799 217.091 595.671 217.533 595.404 217.928C595.138 218.323 594.754 218.632 594.252 218.856C593.751 219.08 593.159 219.192 592.476 219.192Z" fill="#1351D8"/>
<path d="M145 178H315C323.284 178 330 184.716 330 193V203C336.904 203 342.5 208.596 342.5 215.5C342.5 222.404 336.904 228 330 228V237C330 245.284 323.284 252 315 252H145C136.716 252 130 245.284 130 237V193C130 184.716 136.716 178 145 178Z" fill="white"/>
<circle cx="7" cy="7" r="7" transform="matrix(-1 0 0 1 338 208)" fill="#1351D8"/>
<rect x="143" y="189" width="52" height="52" rx="10" fill="#E7EDFB"/>
<path d="M156 222V207C156 206.448 156.448 206 157 206H179.5C180.052 206 180.5 206.448 180.5 207V217M156 222V225.5C156 226.052 156.448 226.5 157 226.5H179.5C180.052 226.5 180.5 226.052 180.5 225.5V225M156 222H176" stroke="#1351D8" stroke-linecap="round"/>
<path d="M163.5 224.5H172.5" stroke="#1351D8" stroke-linecap="round"/>
<circle cx="160.5" cy="224.5" r="0.5" fill="#1351D8"/>
<circle cx="158.5" cy="224.5" r="0.5" fill="#1351D8"/>
<path d="M159.21 214.932V214.25L164.699 211.455V212.545L160.489 214.574L160.523 214.506V214.676L160.489 214.608L164.699 216.636V217.727L159.21 214.932ZM169.916 208.864L167.103 219.312H166.183L168.995 208.864H169.916ZM176.886 214.932L171.398 217.727V216.636L175.608 214.608L175.574 214.676V214.506L175.608 214.574L171.398 212.545V211.455L176.886 214.25V214.932Z" fill="#1351D8"/>
<path d="M179.626 218L179.252 218.89C179.177 218.913 179.11 218.95 179.042 218.988L178.152 218.613L177.613 219.152L177.988 220.042C177.95 220.117 177.92 220.177 177.89 220.252L177 220.626V221.374L177.89 221.748C177.92 221.823 177.95 221.883 177.988 221.958L177.613 222.848L178.152 223.387L179.042 223.012C179.11 223.042 179.177 223.08 179.252 223.11L179.626 224H180.374L180.748 223.11C180.815 223.08 180.89 223.05 180.958 223.012L181.848 223.387L182.387 222.848L182.012 221.958C182.042 221.89 182.08 221.815 182.11 221.748L183 221.374V220.626L182.11 220.252C182.087 220.185 182.05 220.11 182.012 220.042L182.387 219.152L181.848 218.613L180.958 218.988C180.89 218.958 180.815 218.92 180.748 218.89L180.374 218H179.626ZM180 219.87C180.621 219.87 181.122 220.372 181.122 220.993C181.122 221.613 180.621 222.115 180 222.115C179.379 222.115 178.878 221.613 178.878 220.993C178.878 220.372 179.379 219.87 180 219.87Z" fill="#1351D8"/>
<path d="M209.088 219V207.8H212.912C214.224 207.8 215.301 208.035 216.144 208.504C216.997 208.963 217.627 209.613 218.032 210.456C218.448 211.288 218.656 212.269 218.656 213.4C218.656 214.531 218.448 215.517 218.032 216.36C217.627 217.192 216.997 217.843 216.144 218.312C215.301 218.771 214.224 219 212.912 219H209.088ZM211.136 217.24H212.816C213.755 217.24 214.496 217.091 215.04 216.792C215.584 216.483 215.973 216.045 216.208 215.48C216.443 214.904 216.56 214.211 216.56 213.4C216.56 212.6 216.443 211.912 216.208 211.336C215.973 210.76 215.584 210.317 215.04 210.008C214.496 209.699 213.755 209.544 212.816 209.544H211.136V217.24ZM224.271 219.192C223.471 219.192 222.762 219.021 222.143 218.68C221.524 218.339 221.039 217.859 220.687 217.24C220.335 216.621 220.159 215.907 220.159 215.096C220.159 214.275 220.33 213.544 220.671 212.904C221.023 212.264 221.503 211.768 222.111 211.416C222.73 211.053 223.455 210.872 224.287 210.872C225.066 210.872 225.754 211.043 226.351 211.384C226.948 211.725 227.412 212.195 227.743 212.792C228.084 213.379 228.255 214.035 228.255 214.76C228.255 214.877 228.25 215 228.239 215.128C228.239 215.256 228.234 215.389 228.223 215.528H222.191C222.234 216.147 222.447 216.632 222.831 216.984C223.226 217.336 223.7 217.512 224.255 217.512C224.671 217.512 225.018 217.421 225.295 217.24C225.583 217.048 225.796 216.803 225.935 216.504H228.015C227.866 217.005 227.615 217.464 227.263 217.88C226.922 218.285 226.495 218.605 225.983 218.84C225.482 219.075 224.911 219.192 224.271 219.192ZM224.287 212.536C223.786 212.536 223.343 212.68 222.959 212.968C222.575 213.245 222.33 213.672 222.223 214.248H226.175C226.143 213.725 225.951 213.309 225.599 213C225.247 212.691 224.81 212.536 224.287 212.536ZM231.809 219L228.897 211.064H231.041L233.057 217.064L235.073 211.064H237.217L234.289 219H231.809ZM241.974 219.192C241.174 219.192 240.465 219.021 239.846 218.68C239.227 218.339 238.742 217.859 238.39 217.24C238.038 216.621 237.862 215.907 237.862 215.096C237.862 214.275 238.033 213.544 238.374 212.904C238.726 212.264 239.206 211.768 239.814 211.416C240.433 211.053 241.158 210.872 241.99 210.872C242.769 210.872 243.457 211.043 244.054 211.384C244.651 211.725 245.115 212.195 245.446 212.792C245.787 213.379 245.958 214.035 245.958 214.76C245.958 214.877 245.953 215 245.942 215.128C245.942 215.256 245.937 215.389 245.926 215.528H239.894C239.937 216.147 240.15 216.632 240.534 216.984C240.929 217.336 241.403 217.512 241.958 217.512C242.374 217.512 242.721 217.421 242.998 217.24C243.286 217.048 243.499 216.803 243.638 216.504H245.718C245.569 217.005 245.318 217.464 244.966 217.88C244.625 218.285 244.198 218.605 243.686 218.84C243.185 219.075 242.614 219.192 241.974 219.192ZM241.99 212.536C241.489 212.536 241.046 212.68 240.662 212.968C240.278 213.245 240.033 213.672 239.926 214.248H243.878C243.846 213.725 243.654 213.309 243.302 213C242.95 212.691 242.513 212.536 241.99 212.536ZM247.681 219V207.48H249.729V219H247.681ZM255.629 219.192C254.861 219.192 254.168 219.016 253.549 218.664C252.941 218.312 252.456 217.827 252.093 217.208C251.741 216.579 251.565 215.853 251.565 215.032C251.565 214.211 251.747 213.491 252.109 212.872C252.472 212.243 252.957 211.752 253.565 211.4C254.184 211.048 254.877 210.872 255.645 210.872C256.403 210.872 257.085 211.048 257.693 211.4C258.312 211.752 258.797 212.243 259.149 212.872C259.512 213.491 259.693 214.211 259.693 215.032C259.693 215.853 259.512 216.579 259.149 217.208C258.797 217.827 258.312 218.312 257.693 218.664C257.075 219.016 256.387 219.192 255.629 219.192ZM255.629 217.416C256.163 217.416 256.627 217.219 257.021 216.824C257.416 216.419 257.613 215.821 257.613 215.032C257.613 214.243 257.416 213.651 257.021 213.256C256.627 212.851 256.168 212.648 255.645 212.648C255.101 212.648 254.632 212.851 254.237 213.256C253.853 213.651 253.661 214.243 253.661 215.032C253.661 215.821 253.853 216.419 254.237 216.824C254.632 217.219 255.096 217.416 255.629 217.416ZM261.524 222.52V211.064H263.348L263.572 212.2C263.828 211.848 264.164 211.539 264.58 211.272C265.007 211.005 265.556 210.872 266.228 210.872C266.975 210.872 267.642 211.053 268.228 211.416C268.815 211.779 269.279 212.275 269.62 212.904C269.962 213.533 270.132 214.248 270.132 215.048C270.132 215.848 269.962 216.563 269.62 217.192C269.279 217.811 268.815 218.301 268.228 218.664C267.642 219.016 266.975 219.192 266.228 219.192C265.631 219.192 265.108 219.08 264.66 218.856C264.212 218.632 263.85 218.317 263.572 217.912V222.52H261.524ZM265.796 217.4C266.447 217.4 266.986 217.181 267.412 216.744C267.839 216.307 268.052 215.741 268.052 215.048C268.052 214.355 267.839 213.784 267.412 213.336C266.986 212.888 266.447 212.664 265.796 212.664C265.135 212.664 264.591 212.888 264.164 213.336C263.748 213.773 263.54 214.339 263.54 215.032C263.54 215.725 263.748 216.296 264.164 216.744C264.591 217.181 265.135 217.4 265.796 217.4ZM271.962 219V211.064H273.77L273.946 212.136C274.202 211.752 274.538 211.448 274.954 211.224C275.381 210.989 275.871 210.872 276.426 210.872C277.653 210.872 278.522 211.347 279.034 212.296C279.322 211.859 279.706 211.512 280.186 211.256C280.677 211 281.21 210.872 281.786 210.872C282.821 210.872 283.615 211.181 284.17 211.8C284.725 212.419 285.002 213.325 285.002 214.52V219H282.954V214.712C282.954 214.029 282.821 213.507 282.554 213.144C282.298 212.781 281.898 212.6 281.354 212.6C280.799 212.6 280.351 212.803 280.01 213.208C279.679 213.613 279.514 214.179 279.514 214.904V219H277.466V214.712C277.466 214.029 277.333 213.507 277.066 213.144C276.799 212.781 276.389 212.6 275.834 212.6C275.29 212.6 274.847 212.803 274.506 213.208C274.175 213.613 274.01 214.179 274.01 214.904V219H271.962ZM290.802 219.192C290.002 219.192 289.293 219.021 288.674 218.68C288.056 218.339 287.57 217.859 287.218 217.24C286.866 216.621 286.69 215.907 286.69 215.096C286.69 214.275 286.861 213.544 287.202 212.904C287.554 212.264 288.034 211.768 288.642 211.416C289.261 211.053 289.986 210.872 290.818 210.872C291.597 210.872 292.285 211.043 292.882 211.384C293.48 211.725 293.944 212.195 294.274 212.792C294.616 213.379 294.786 214.035 294.786 214.76C294.786 214.877 294.781 215 294.77 215.128C294.77 215.256 294.765 215.389 294.754 215.528H288.722C288.765 216.147 288.978 216.632 289.362 216.984C289.757 217.336 290.232 217.512 290.786 217.512C291.202 217.512 291.549 217.421 291.826 217.24C292.114 217.048 292.328 216.803 292.466 216.504H294.546C294.397 217.005 294.146 217.464 293.794 217.88C293.453 218.285 293.026 218.605 292.514 218.84C292.013 219.075 291.442 219.192 290.802 219.192ZM290.818 212.536C290.317 212.536 289.874 212.68 289.49 212.968C289.106 213.245 288.861 213.672 288.754 214.248H292.706C292.674 213.725 292.482 213.309 292.13 213C291.778 212.691 291.341 212.536 290.818 212.536ZM296.509 219V211.064H298.317L298.477 212.408C298.722 211.939 299.074 211.565 299.533 211.288C300.002 211.011 300.551 210.872 301.181 210.872C302.162 210.872 302.925 211.181 303.469 211.8C304.013 212.419 304.285 213.325 304.285 214.52V219H302.237V214.712C302.237 214.029 302.098 213.507 301.821 213.144C301.543 212.781 301.111 212.6 300.525 212.6C299.949 212.6 299.474 212.803 299.101 213.208C298.738 213.613 298.557 214.179 298.557 214.904V219H296.509ZM309.779 219C308.947 219 308.28 218.797 307.779 218.392C307.278 217.987 307.027 217.267 307.027 216.232V212.776H305.667V211.064H307.027L307.267 208.936H309.075V211.064H311.219V212.776H309.075V216.248C309.075 216.632 309.155 216.899 309.315 217.048C309.486 217.187 309.774 217.256 310.179 217.256H311.171V219H309.779Z" fill="#1351D8"/>
<path d="M479 345H309C300.716 345 294 351.716 294 360V370C287.096 370 281.5 375.596 281.5 382.5C281.5 389.404 287.096 395 294 395V404C294 412.284 300.716 419 309 419H479C487.284 419 494 412.284 494 404V360C494 351.716 487.284 345 479 345Z" fill="white"/>
<circle cx="293" cy="382" r="7" fill="#1351D8"/>
<rect x="306" y="356" width="52" height="52" rx="10" fill="#E7EDFB"/>
<path d="M333.85 388.065C333.727 388.104 333.624 388.188 333.562 388.301L331 392.962L328.438 388.301C328.376 388.188 328.273 388.104 328.15 388.065C324.295 386.854 321.5 383.253 321.5 379C321.5 373.753 325.753 369.5 331 369.5C336.247 369.5 340.5 373.753 340.5 379C340.5 383.253 337.705 386.854 333.85 388.065Z" stroke="#1351D8" stroke-linejoin="round"/>
<circle cx="331" cy="379" r="7.5" stroke="#1351D8" stroke-linejoin="round"/>
<path d="M330 375H327.134C327.06 375 327 375.06 327 375.134V382.866C327 382.94 327.06 383 327.134 383H334.866C334.94 383 335 382.94 335 382.866V375.134C335 375.06 334.94 375 334.866 375H332M330 375V376.866C330 376.94 330.06 377 330.134 377H331.866C331.94 377 332 376.94 332 376.866V375M330 375H332" stroke="#1351D8" stroke-linecap="round" stroke-linejoin="round"/>
<path d="M329 379H331M329 381H331" stroke="#1351D8" stroke-linecap="round" stroke-linejoin="round"/>
<path d="M328 396.5H334" stroke="#1351D8" stroke-linecap="round" stroke-linejoin="round"/>
<path d="M372.088 386V374.8H375.912C377.224 374.8 378.301 375.035 379.144 375.504C379.997 375.963 380.627 376.613 381.032 377.456C381.448 378.288 381.656 379.269 381.656 380.4C381.656 381.531 381.448 382.517 381.032 383.36C380.627 384.192 379.997 384.843 379.144 385.312C378.301 385.771 377.224 386 375.912 386H372.088ZM374.136 384.24H375.816C376.755 384.24 377.496 384.091 378.04 383.792C378.584 383.483 378.973 383.045 379.208 382.48C379.443 381.904 379.56 381.211 379.56 380.4C379.56 379.6 379.443 378.912 379.208 378.336C378.973 377.76 378.584 377.317 378.04 377.008C377.496 376.699 376.755 376.544 375.816 376.544H374.136V384.24ZM387.271 386.192C386.471 386.192 385.762 386.021 385.143 385.68C384.524 385.339 384.039 384.859 383.687 384.24C383.335 383.621 383.159 382.907 383.159 382.096C383.159 381.275 383.33 380.544 383.671 379.904C384.023 379.264 384.503 378.768 385.111 378.416C385.73 378.053 386.455 377.872 387.287 377.872C388.066 377.872 388.754 378.043 389.351 378.384C389.948 378.725 390.412 379.195 390.743 379.792C391.084 380.379 391.255 381.035 391.255 381.76C391.255 381.877 391.25 382 391.239 382.128C391.239 382.256 391.234 382.389 391.223 382.528H385.191C385.234 383.147 385.447 383.632 385.831 383.984C386.226 384.336 386.7 384.512 387.255 384.512C387.671 384.512 388.018 384.421 388.295 384.24C388.583 384.048 388.796 383.803 388.935 383.504H391.015C390.866 384.005 390.615 384.464 390.263 384.88C389.922 385.285 389.495 385.605 388.983 385.84C388.482 386.075 387.911 386.192 387.271 386.192ZM387.287 379.536C386.786 379.536 386.343 379.68 385.959 379.968C385.575 380.245 385.33 380.672 385.223 381.248H389.175C389.143 380.725 388.951 380.309 388.599 380C388.247 379.691 387.81 379.536 387.287 379.536ZM392.978 386V374.48H395.026V386H392.978ZM398.222 376.832C397.849 376.832 397.539 376.72 397.294 376.496C397.059 376.272 396.942 375.989 396.942 375.648C396.942 375.307 397.059 375.029 397.294 374.816C397.539 374.592 397.849 374.48 398.222 374.48C398.595 374.48 398.899 374.592 399.134 374.816C399.379 375.029 399.502 375.307 399.502 375.648C399.502 375.989 399.379 376.272 399.134 376.496C398.899 376.72 398.595 376.832 398.222 376.832ZM397.198 386V378.064H399.246V386H397.198ZM403.528 386L400.616 378.064H402.76L404.776 384.064L406.792 378.064H408.936L406.008 386H403.528ZM413.693 386.192C412.893 386.192 412.184 386.021 411.565 385.68C410.946 385.339 410.461 384.859 410.109 384.24C409.757 383.621 409.581 382.907 409.581 382.096C409.581 381.275 409.752 380.544 410.093 379.904C410.445 379.264 410.925 378.768 411.533 378.416C412.152 378.053 412.877 377.872 413.709 377.872C414.488 377.872 415.176 378.043 415.773 378.384C416.37 378.725 416.834 379.195 417.165 379.792C417.506 380.379 417.677 381.035 417.677 381.76C417.677 381.877 417.672 382 417.661 382.128C417.661 382.256 417.656 382.389 417.645 382.528H411.613C411.656 383.147 411.869 383.632 412.253 383.984C412.648 384.336 413.122 384.512 413.677 384.512C414.093 384.512 414.44 384.421 414.717 384.24C415.005 384.048 415.218 383.803 415.357 383.504H417.437C417.288 384.005 417.037 384.464 416.685 384.88C416.344 385.285 415.917 385.605 415.405 385.84C414.904 386.075 414.333 386.192 413.693 386.192ZM413.709 379.536C413.208 379.536 412.765 379.68 412.381 379.968C411.997 380.245 411.752 380.672 411.645 381.248H415.597C415.565 380.725 415.373 380.309 415.021 380C414.669 379.691 414.232 379.536 413.709 379.536ZM419.399 386V378.064H421.223L421.415 379.552C421.703 379.04 422.093 378.635 422.583 378.336C423.085 378.027 423.671 377.872 424.343 377.872V380.032H423.767C423.319 380.032 422.919 380.101 422.567 380.24C422.215 380.379 421.938 380.619 421.735 380.96C421.543 381.301 421.447 381.776 421.447 382.384V386H419.399ZM426.735 389.52L428.575 385.472H428.095L425.007 378.064H427.231L429.455 383.648L431.775 378.064H433.951L428.911 389.52H426.735Z" fill="#1351D8"/>
</svg>
